Coordinates
version=1
nRows=17
nColumns=36
inDegrees=yes

Units are S.I. units (second, meters, Newtons, ...)
If the header above contains a line with 'inDegrees', this indicates whether rotational values are in degrees (yes) or radians (no).

endheader
time	pelvis_tilt	pelvis_list	pelvis_rotation	pelvis_tx	pelvis_ty	pelvis_tz	hip_flexion_r	hip_adduction_r	hip_rotation_r	knee_angle_r	knee_angle_r_beta	ankle_angle_r	subtalar_angle_r	mtp_angle_r	hip_flexion_l	hip_adduction_l	hip_rotation_l	knee_angle_l	knee_angle_l_beta	ankle_angle_l	subtalar_angle_l	mtp_angle_l	lumbar_extension	lumbar_bending	lumbar_rotation	arm_flex_r	arm_add_r	arm_rot_r	elbow_flex_r	pro_sup_r	arm_flex_l	arm_add_l	arm_rot_l	elbow_flex_l	pro_sup_l
      0.00000000	      0.07773450	      0.50281430	      9.82422804	     -1.00751590	      1.39386387	     -0.08717718	     -6.82742496	      1.66006189	    -17.55706787	      0.09386947	      0.00163833	      9.62848344	     -7.88201280	     -5.28311515	     -3.96338686	     -0.76983153	    -12.04222576	      0.10129935	      0.00176801	      6.23181762	     -0.54680943	     -5.28311515	     -6.39683961	      1.61453557	      2.38866843	      7.93090523	     -5.13134354	     20.57380055	     24.16183345	     77.95426895	      4.65369674	     -6.75339454	     21.57181688	     27.57554879	     68.17139991
      0.00416670	     -2.07014815	      0.24999453	      9.40294570	     -1.00422777	      1.38847507	     -0.08744837	     -4.35033180	      2.03870617	    -19.41478175	      0.09452824	      0.00164983	     11.15104153	     -5.17583473	     -5.99275218	     -1.56040448	     -0.27357417	    -15.02633517	      0.10190704	      0.00177861	      7.74833476	      1.85977473	     -5.99275218	     -3.25569978	      1.43839661	      3.65574735	      6.79514106	     -4.90688560	     15.76915522	     24.47658337	     79.77604324	      4.32432477	     -6.14331718	     20.54922654	     26.69054715	     68.19337828
      0.00833330	     -2.93379099	      0.72630204	      8.90742747	     -1.00380486	      1.38782065	     -0.08570727	     -3.46056258	      1.67224997	    -20.47362863	      0.08801154	      0.00153609	     11.39432851	     -4.97755373	     -6.20864437	     -0.63820749	      0.36949059	    -16.50788931	      0.09880747	      0.00172452	      8.67148522	      3.21375910	     -6.20864437	     -2.10015275	      0.25719886	      4.46584651	      6.69496515	     -4.17817081	     15.07868080	     23.96513967	     78.64836217	      4.52886202	     -6.34479643	     20.64374579	     26.32811974	     67.74224868
      0.01250000	     -3.35816162	      1.00195604	      8.68870540	     -1.00525355	      1.38638523	     -0.08622441	     -2.87798071	      1.26493771	    -21.27672354	      0.08338962	      0.00145542	     12.01324289	     -4.14296643	     -6.51439980	     -0.17143062	      0.79271678	    -17.78384484	      0.09063420	      0.00158187	      9.39312164	      4.34846957	     -6.51439980	     -1.56908641	     -0.43647050	      5.38442170	      6.14277507	     -4.09111858	     14.28107843	     24.62490414	     78.21842253	      5.06541348	     -6.99583793	     23.03538411	     26.41474405	     68.49916614
      0.01666670	     -3.81981518	      1.06069920	      8.42890440	     -1.00583752	      1.38587352	     -0.08642151	     -2.31150054	      1.08492834	    -21.60918070	      0.08038507	      0.00140298	     12.09270276	     -4.02343169	     -6.65070259	      0.33140582	      0.99528049	    -18.22920321	      0.08619475	      0.00150438	      9.72943220	      4.91339309	     -6.65070259	     -0.97230687	     -0.66155690	      5.90278026	      5.89029071	     -4.14693651	     14.94832658	     24.88065377	     77.92013907	      5.33269822	     -7.29593604	     24.67419196	     26.50147189	     69.21364759
      0.02083330	     -4.08543880	      1.10087255	      8.21085201	     -1.00639279	      1.38969134	     -0.08647831	     -1.98787208	      0.95274119	    -21.54538415	      0.07858906	      0.00137164	     11.88687794	     -4.25914318	     -6.75190029	      0.65251666	      1.11574753	    -18.43886996	      0.08334597	      0.00145466	      9.78840067	      5.00012540	     -6.75190029	     -0.72513836	     -0.76730597	      6.15797331	      5.77913467	     -4.25163010	     15.43283828	     25.09264277	     77.15522681	      5.48617819	     -7.37940723	     25.28228003	     26.59650899	     69.19379453
      0.02500000	     -4.43144772	      1.06525152	      7.92947021	     -1.00696372	      1.38485919	     -0.08600059	     -1.56734927	      0.92678053	    -21.63145997	      0.07804741	      0.00136218	     12.04355048	     -3.93205500	     -6.80400461	      0.99068502	      1.13449319	    -18.45592678	      0.08244480	      0.00143893	      9.86201494	      5.42164854	     -6.80400461	     -0.29761684	     -0.72745300	      6.56381215	      5.75147532	     -4.62946412	     17.63239968	     25.37759137	     77.17674395	      5.78540569	     -7.65532483	     28.08919808	     26.60151110	     70.94133120
      0.02916670	     -4.55598337	      1.05011921	      7.76296808	     -1.00722364	      1.38386454	     -0.08476877	     -1.37920736	      0.94791870	    -21.52089353	      0.07740794	      0.00135102	     11.97577263	     -4.04317721	     -6.91755930	      1.13098694	      1.13918796	    -18.45980872	      0.08185190	      0.00142859	      9.92941590	      5.57591049	     -6.91755930	     -0.20151204	     -0.72762579	      6.78076067	      5.74498181	     -4.81388354	     18.69917908	     25.58319634	     76.07475716	      5.97674299	     -7.77306122	     29.20943770	     26.70159725	     71.51972589
      0.03333330	     -4.55891288	      1.03192886	      7.74959022	     -1.00719068	      1.38550902	     -0.08531241	     -1.33876173	      0.97072739	    -21.28601264	      0.07632517	      0.00133213	     11.62069176	     -4.51383409	     -6.99500518	      1.14573957	      1.11613430	    -18.24117447	      0.08105162	      0.00141462	      9.62722783	      4.95836130	     -6.99500518	     -0.30706117	     -0.70677428	      6.83184627	      5.74889400	     -4.89121670	     18.99485213	     25.77791053	     74.96799346	      6.04065595	     -7.80332991	     29.51428398	     26.86869714	     71.13971649
      0.03750000	     -4.64761926	      1.00399835	      7.70181218	     -1.00456114	      1.38592047	     -0.08361193	     -1.27144153	      1.02799115	    -21.43245286	      0.07582109	      0.00132333	     11.63598615	     -4.08518230	     -7.06056240	      1.17308533	      1.03527564	    -18.71112874	      0.08095410	      0.00141292	      9.65317771	      5.50866401	     -7.06056240	     -0.09588583	     -0.73523573	      6.93059342	      5.64354990	     -5.08656576	     20.48205255	     25.83495205	     74.74551623	      6.16773901	     -8.08838180	     31.30872097	     26.70884713	     72.46881962
      0.04166670	     -4.68239555	      0.97714281	      7.75585801	     -1.00579158	      1.38854092	     -0.08294994	     -1.25439929	      1.10826098	    -21.36579914	      0.07531890	      0.00131456	     11.44577364	     -3.94989603	     -7.13536853	      1.20050663	      0.95847186	    -18.64299044	      0.08017771	      0.00139937	      9.32633384	      5.51138087	     -7.13536853	      0.01589883	     -0.73027654	      6.92761739	      5.54230208	     -5.17529751	     21.14763728	     25.81340348	     74.32175484	      6.26498493	     -8.22845284	     32.30362728	     26.46686380	     73.58118241
      0.04583330	     -4.75477079	      0.91970368	      7.80091726	     -1.00785227	      1.38718063	     -0.08383220	     -1.14176037	      1.18778394	    -21.16467865	      0.07479039	      0.00130534	     11.30661478	     -3.97345203	     -7.20749411	      1.31328810	      0.87681165	    -18.68267915	      0.07983334	      0.00139335	      9.07150915	      5.66985659	     -7.20749411	      0.09661495	     -0.68870545	      6.88130168	      5.48436578	     -5.25971403	     21.44509525	     25.92002070	     73.97340493	      6.39192083	     -8.34466318	     32.97476602	     26.32897727	     74.70759814
      0.05000000	     -4.74819762	      0.88108113	      7.79451620	     -1.00527231	      1.38731547	     -0.08482178	     -1.12674838	      1.21927377	    -21.02949545	      0.07398652	      0.00129131	     11.11298957	     -4.10379648	     -7.23024124	      1.28651715	      0.82782362	    -18.61598565	      0.07901371	      0.00137905	      8.74220300	      5.46035240	     -7.23024124	      0.11191124	     -0.61049013	      6.82370319	      5.46783414	     -5.26275405	     21.35466649	     25.79653347	     73.55627983	      6.35217256	     -8.31818972	     33.00263394	     26.17966586	     74.55533656
      0.05416670	     -4.80129490	      0.81794810	      7.69526969	     -1.00774866	      1.38455229	     -0.08426804	     -1.03094093	      1.25431747	    -21.13995223	      0.07362049	      0.00128492	     11.18007023	     -3.96514387	     -7.34440634	      1.35160400	      0.76727314	    -18.90102510	      0.07893276	      0.00137764	      8.79408232	      5.87424310	     -7.34440634	      0.16946422	     -0.51531760	      7.00572241	      5.32131864	     -5.34573560	     20.83406410	     25.94189053	     75.68674652	      6.41196404	     -8.31656211	     32.54552435	     26.09580552	     80.92400453
      0.05833330	     -4.79634576	      0.79485298	      7.59678013	     -1.00828596	      1.38622840	     -0.08465440	     -0.97018106	      1.22326769	    -21.18837080	      0.07303835	      0.00127476	     11.17972799	     -4.02275798	     -7.36093093	      1.38594295	      0.74611062	    -19.09540461	      0.07825059	      0.00136573	      8.75137773	      5.98200501	     -7.36093093	      0.10704768	     -0.42331786	      7.02105414	      5.36814638	     -5.40179933	     20.85114117	     25.93158266	     75.13853989	      6.40630049	     -8.30331700	     32.63779101	     26.08052511	     80.27357093
      0.06250000	     -4.86630703	      0.76562383	      7.50945129	     -1.01001456	      1.38808210	     -0.08546764	     -0.80284214	      1.19009763	    -21.25014522	      0.07252221	      0.00126575	     11.08190249	     -4.06037301	     -7.37096584	      1.51953094	      0.75013613	    -19.21721958	      0.07758249	      0.00135407	      8.64075860	      5.99434999	     -7.37096584	      0.07168905	     -0.34650798	      7.01032169	      5.43660181	     -5.51244584	     20.83475185	     25.98374182	     74.83224474	      6.46179755	     -8.32832345	     32.79024842	     26.07596214	     79.98777421
      0.06666670	     -4.79839928	      0.75813512	      7.46152851	     -1.00771994	      1.38783418	     -0.08430937	     -0.85136120	      1.18993093	    -21.22763521	      0.07205326	      0.00125757	     11.04587269	     -4.10912766	     -7.38321944	      1.46399446	      0.72799584	    -19.30089953	      0.07691873	      0.00134249	      8.52770873	      5.91394654	     -7.38321944	     -0.06637248	     -0.31361929	      6.99133620	      5.48944387	     -5.49256709	     20.79229865	     25.86002357	     74.29388966	      6.53036592	     -8.28393511	     32.99566431	     25.92895854	     79.46760603
